<svg version="1.1" id="Layer_1" xmlns="http://www.w3.org/2000/svg" xmlns:xlink="http://www.w3.org/1999/xlink" x="0px" y="0px"
	 width="100%" viewBox="0 0 512 512" enable-background="new 0 0 512 512" xml:space="preserve">
<path fill="#000000" opacity="1.000000" stroke="none" 
	d="
M289.000000,513.000000 
	C192.690048,513.000000 96.880096,513.000000 1.035069,513.000000 
	C1.035069,342.398346 1.035069,171.796707 1.035069,1.097524 
	C171.559967,1.097524 342.120026,1.097524 512.840027,1.097524 
	C512.840027,171.666550 512.840027,342.333252 512.840027,513.000000 
	C438.463348,513.000000 363.981659,513.000000 289.000000,513.000000 
M294.923279,282.978058 
	C299.618896,282.930145 304.314545,282.882202 309.492371,282.953735 
	C309.492371,282.953735 309.974976,282.835754 310.492615,282.958069 
	C310.665192,282.917297 310.837738,282.876556 311.498108,282.952606 
	C311.660248,282.911896 311.822418,282.871185 312.648712,282.969330 
	C313.096130,282.923035 313.543549,282.876740 314.864899,282.975769 
	C317.619598,282.516510 318.062012,283.961884 318.041656,286.355530 
	C317.944580,297.757599 317.827087,309.165375 318.119141,320.560791 
	C318.191956,323.401520 316.379486,323.810547 314.138611,324.995575 
	C299.618347,329.315216 291.435059,342.377228 292.080109,361.295746 
	C292.480225,373.031891 301.925598,386.711182 316.736725,390.208221 
	C323.988159,392.163849 331.156372,392.587738 338.850525,389.005157 
	C343.219452,386.060608 348.263275,383.760315 351.817078,380.037628 
	C359.253662,372.247498 360.985931,362.362122 360.032379,351.819366 
	C358.953186,339.887360 347.124207,326.437653 336.610291,324.188751 
	C336.073608,323.188904 335.136475,322.213348 335.074158,321.184753 
	C334.874786,317.893188 334.999359,314.581970 334.999329,311.278351 
	C334.999207,301.920166 334.999298,292.561981 334.999298,282.833649 
	C338.076904,282.833649 340.537689,282.833649 343.926239,282.977570 
	C354.284882,282.928833 364.643494,282.880096 375.888336,282.971771 
	C381.559631,281.846588 387.695648,281.722900 392.791687,279.358063 
	C400.166351,275.935883 403.999573,269.346893 404.056244,260.795349 
	C404.098145,254.472946 404.666901,248.154037 405.928253,241.976776 
	C414.952545,241.929016 423.976868,241.881256 433.882538,241.975983 
	C435.478333,241.975983 437.074158,241.975983 438.997711,241.975983 
	C438.997711,260.152283 439.059784,277.762238 438.868591,295.369415 
	C438.854736,296.645325 436.999237,297.901215 435.268524,299.037079 
	C431.023804,301.688477 425.926208,303.570343 422.702667,307.143127 
	C414.722565,315.987762 411.349487,326.410767 413.871826,338.677826 
	C416.111298,349.569305 425.949921,361.174927 436.380768,363.793488 
	C442.935211,363.903015 449.489685,364.012543 456.818695,364.016571 
	C476.165253,359.724396 484.389313,339.483429 480.113892,321.437408 
	C477.054749,308.525299 468.258698,301.450867 456.005737,296.962799 
	C456.003662,276.344818 456.013824,255.726791 455.992126,235.108826 
	C455.985657,228.969437 452.600433,225.309235 446.460968,225.043182 
	C442.649933,224.878067 438.821594,225.111801 434.072906,225.024643 
	C424.715088,225.072006 415.357239,225.119370 405.143585,224.980652 
	C404.762024,223.703125 404.083130,222.432953 404.051270,221.146744 
	C403.924286,216.021133 404.270081,210.872559 403.931610,205.766235 
	C403.486572,199.052139 400.637573,193.569977 395.035858,189.399857 
	C388.900757,184.832626 382.074036,184.681900 374.070953,185.024963 
	C365.046509,185.072235 356.022095,185.119507 346.070129,185.025345 
	C336.712860,185.072571 327.355621,185.119812 317.070892,185.024887 
	C309.379608,185.072205 301.688324,185.119522 293.069641,185.024841 
	C285.045807,185.072144 277.022003,185.119446 268.124359,185.024033 
	C267.087006,184.403091 265.170013,183.811447 265.148193,183.156662 
	C264.925934,176.488541 265.012329,169.810104 265.012329,163.160980 
	C267.401947,163.030106 269.199951,162.931625 271.925659,162.978027 
	C280.949585,162.929672 289.973511,162.881317 299.925446,162.977127 
	C307.950012,162.929184 315.974579,162.881241 324.926697,162.977753 
	C334.618011,162.929672 344.309296,162.881592 354.928070,162.977081 
	C362.951721,162.929092 370.975372,162.881104 379.865845,162.976028 
	C394.095276,163.822006 404.528320,152.807159 404.118591,139.104416 
	C403.616577,122.315224 403.999237,105.499611 403.998871,88.695419 
	C403.998535,73.974770 394.846039,65.383804 379.071075,66.024826 
	C371.047241,66.072098 363.023376,66.119377 354.071747,66.024826 
	C345.712952,66.072372 337.354187,66.119911 328.068115,66.026054 
	C318.711182,66.073158 309.354248,66.120270 299.069916,66.024963 
	C290.046204,66.072289 281.022461,66.119614 271.071045,66.025047 
	C261.713135,66.072334 252.355209,66.119621 242.069885,66.024780 
	C232.046097,66.072044 222.022308,66.119316 211.070892,66.024521 
	C201.713409,66.071899 192.355942,66.119278 182.070892,66.024208 
	C173.379852,66.071686 164.688812,66.119164 155.070435,66.023743 
	C147.380112,66.071281 139.689789,66.118820 131.138199,66.023232 
	C117.507812,65.118881 109.472328,76.190880 109.162216,86.160591 
	C108.587570,104.634331 108.891335,123.139549 109.037064,141.630020 
	C109.127663,153.125397 120.173210,163.908615 132.926712,162.979858 
	C140.617050,162.931091 148.307388,162.882339 156.925278,162.979828 
	C165.616150,162.930969 174.307022,162.882095 183.925385,162.979385 
	C193.616394,162.930618 203.307419,162.881851 213.925873,162.979019 
	C223.283051,162.930527 232.640213,162.882034 242.879807,162.978592 
	C244.478363,162.978592 246.076920,162.978592 247.735962,162.978592 
	C247.735962,170.639923 247.735962,177.739807 247.735962,184.842926 
	C245.982712,184.962784 244.490463,185.064789 242.070679,185.024628 
	C233.380081,185.071823 224.689468,185.119019 215.071320,185.023560 
	C206.379745,185.071426 197.688156,185.119293 188.069260,185.025436 
	C179.711884,185.072754 171.354523,185.120071 162.069946,185.023697 
	C153.712753,185.071304 145.355545,185.118912 136.097687,185.023972 
	C135.101318,185.016571 134.100601,185.067154 133.109253,184.992905 
	C121.668755,184.136063 111.186264,192.124222 109.327042,203.637970 
	C108.385849,209.466522 109.165009,215.559937 108.908401,221.522507 
	C108.855042,222.762497 107.663422,223.953506 106.069176,225.024536 
	C96.711845,225.072159 87.354507,225.119766 77.080315,225.023331 
	C74.747246,225.015594 72.414177,224.999939 70.081116,225.001541 
	C61.138561,225.007660 58.002441,228.138275 58.000111,237.081207 
	C57.995205,255.912872 58.055450,274.744995 57.906979,293.575470 
	C57.892788,295.374939 56.597366,297.164246 55.148445,299.012634 
	C52.962555,299.979675 50.588177,300.661530 48.622051,301.961060 
	C37.682491,309.191650 32.984600,319.384674 32.826771,332.562927 
	C32.656963,346.741730 45.587891,362.172699 58.837925,364.005127 
	C65.335793,365.756470 71.749168,365.692139 78.802185,363.014954 
	C88.702980,360.274597 95.224258,353.208679 98.684586,344.331909 
	C105.895950,325.832611 97.338547,305.151306 77.680756,298.160370 
	C74.460289,298.433563 74.995827,296.156708 74.996605,294.224304 
	C75.001129,282.949524 74.998779,271.674774 74.998756,260.399994 
	C74.998749,254.308304 74.998756,248.216614 74.998756,242.167130 
	C77.026085,242.031494 78.511627,241.932098 80.924690,241.980133 
	C89.615341,241.931046 98.306000,241.881958 107.855049,242.018387 
	C108.235840,243.128632 108.921112,244.232193 108.945595,245.350235 
	C109.061722,250.653244 108.611549,255.998459 109.132477,261.252350 
	C109.484001,264.797791 110.559113,268.522552 112.274902,271.635559 
	C117.886490,281.816742 127.707184,283.020386 138.926163,282.979034 
	C148.949814,282.931122 158.973480,282.883240 169.905106,282.981628 
	C172.838959,282.981628 175.772827,282.981628 178.997147,282.981628 
	C178.997147,296.203796 179.076584,308.825409 178.864899,321.442139 
	C178.845367,322.605682 176.971252,323.738159 175.202347,324.986816 
	C157.722473,331.135925 150.006271,347.489166 153.545639,364.917145 
	C156.066330,377.329071 164.330902,385.294281 176.817886,390.000488 
	C183.559341,391.724976 190.290100,392.158844 197.731705,389.968018 
	C198.897964,389.424347 200.071075,388.894836 201.229401,388.334778 
	C218.239578,380.110199 223.140259,366.486969 220.723648,350.612122 
	C218.630295,336.860809 209.629623,327.852478 196.004166,322.963104 
	C196.016891,309.680084 196.029617,296.397034 196.969742,283.016205 
	C205.312881,282.954987 213.656036,282.893768 222.926361,282.977905 
	C229.617172,282.931671 236.307999,282.885437 243.879013,282.983704 
	C245.144852,282.983704 246.410690,282.983704 247.528244,282.983704 
	C247.772781,283.810059 247.945450,284.121490 247.945709,284.433014 
	C247.971848,315.580872 248.024857,346.728912 247.871429,377.875946 
	C247.864349,379.311188 245.997467,380.737213 244.492294,382.048767 
	C244.324921,382.091522 244.157532,382.134308 243.465988,382.117645 
	C243.273392,382.400269 243.080780,382.682892 242.171051,383.011658 
	C223.938644,391.871460 216.855042,413.197144 226.905655,431.467651 
	C230.932175,438.787231 236.803070,443.865845 245.374283,446.797485 
	C252.249008,446.809448 259.123749,446.821442 266.751129,446.964874 
	C284.451233,442.416779 294.701752,422.047211 289.915527,405.401581 
	C286.528229,393.621124 279.470154,385.050598 266.612030,381.187805 
	C266.074310,379.682648 265.072174,378.178894 265.067505,376.672089 
	C264.975372,346.911896 264.984192,317.151367 265.041351,287.391022 
	C265.044281,285.871063 265.665070,284.352295 266.925995,282.977539 
	C275.950928,282.929626 284.975861,282.881683 294.923279,282.978058 
z"/>
<path fill="#2A8CFF" opacity="1.000000" stroke="none" 
	d="
M244.996796,382.167542 
	C245.997467,380.737213 247.864349,379.311188 247.871429,377.875946 
	C248.024857,346.728912 247.971848,315.580872 247.945709,284.433014 
	C247.945450,284.121490 247.772781,283.810059 247.528244,282.983704 
	C246.410690,282.983704 245.144852,282.983704 243.439148,282.453064 
	C242.999329,274.778259 242.870087,267.631104 243.037704,260.490875 
	C243.188995,254.045517 243.664978,247.607758 244.461609,241.094101 
	C252.283249,241.069778 259.641022,241.118011 266.999207,241.624481 
	C266.665802,255.666122 266.332031,269.249542 265.998230,282.832977 
	C265.665070,284.352295 265.044281,285.871063 265.041351,287.391022 
	C264.984192,317.151367 264.975372,346.911896 265.067505,376.672089 
	C265.072174,378.178894 266.074310,379.682648 266.741180,381.953613 
	C266.580322,385.175385 266.047974,387.630463 266.038788,390.087524 
	C265.968231,409.002594 265.999084,427.918060 265.998474,446.833405 
	C259.123749,446.821442 252.249008,446.809448 245.175110,445.979706 
	C244.982880,424.163788 244.989838,403.165680 244.996796,382.167542 
z"/>
<path fill="#387CFF" opacity="1.000000" stroke="none" 
	d="
M342.998474,282.833649 
	C340.537689,282.833649 338.076904,282.833649 334.999298,282.833649 
	C334.999298,292.561981 334.999207,301.920166 334.999329,311.278351 
	C334.999359,314.581970 334.874786,317.893188 335.074158,321.184753 
	C335.136475,322.213348 336.073608,323.188904 336.816803,325.012878 
	C337.015564,344.994293 336.976471,364.151703 337.048676,383.308655 
	C337.055878,385.222626 337.739410,387.134064 338.109070,389.046661 
	C331.156372,392.587738 323.988159,392.163849 316.368286,389.562805 
	C315.999878,369.666840 316.033539,350.416138 315.951294,331.165924 
	C315.942444,329.093384 315.260376,327.023743 314.890594,324.952759 
	C316.379486,323.810547 318.191956,323.401520 318.119141,320.560791 
	C317.827087,309.165375 317.944580,297.757599 318.041656,286.355530 
	C318.062012,283.961884 317.619598,282.516510 314.430389,282.445251 
	C313.663605,268.331940 313.331329,254.749161 313.462952,241.094452 
	C323.617462,241.070465 333.308075,241.118408 343.088867,241.564026 
	C343.452667,249.354538 343.943787,256.747681 343.933136,264.140137 
	C343.924164,270.371735 343.332306,276.602509 342.998474,282.833649 
z"/>
<path fill="#1D9DFF" opacity="1.000000" stroke="none" 
	d="
M196.042343,283.114014 
	C196.029617,296.397034 196.016891,309.680084 196.013947,323.900146 
	C196.015961,344.055786 195.972641,363.274567 196.044662,382.492920 
	C196.053848,384.940857 196.665482,387.386597 196.998016,389.833344 
	C190.290100,392.158844 183.559341,391.724976 176.408905,389.458771 
	C175.986053,367.573059 175.972168,346.229034 175.958298,324.885040 
	C176.971252,323.738159 178.845367,322.605682 178.864899,321.442139 
	C179.076584,308.825409 178.997147,296.203796 178.997147,282.981628 
	C175.772827,282.981628 172.838959,282.981628 169.362488,282.510620 
	C168.546631,279.739929 168.054047,277.441772 168.037277,275.140198 
	C167.954742,263.816284 167.998474,252.491409 168.461365,241.093414 
	C178.616257,241.068848 188.307419,241.117752 197.909058,241.564392 
	C197.546402,244.254501 197.105240,246.541229 197.028473,248.840149 
	C196.647018,260.263000 196.361603,271.689087 196.042343,283.114014 
z"/>
<path fill="#3E74FF" opacity="1.000000" stroke="none" 
	d="
M343.462341,282.905609 
	C343.332306,276.602509 343.924164,270.371735 343.933136,264.140137 
	C343.943787,256.747681 343.452667,249.354538 343.543152,241.492218 
	C346.552826,241.014664 349.200684,240.933289 351.843384,241.015656 
	C355.816833,241.139526 358.113434,238.594528 358.824829,235.402328 
	C359.641174,231.739090 358.581757,228.081772 354.151306,227.017670 
	C351.491943,226.378967 348.719360,226.211990 345.998047,225.374817 
	C345.998962,218.438538 345.869995,211.957138 346.035553,205.483276 
	C346.208862,198.707336 346.665100,191.938644 346.997650,185.166779 
	C356.022095,185.119507 365.046509,185.072235 374.535156,185.553802 
	C375.000275,218.332199 375.001221,250.581772 375.002136,282.831329 
	C364.643494,282.880096 354.284882,282.928833 343.462341,282.905609 
z"/>
<path fill="#2593FF" opacity="1.000000" stroke="none" 
	d="
M241.997391,162.833542 
	C232.640213,162.882034 223.283051,162.930527 213.462463,162.448029 
	C212.999207,148.666962 212.999344,135.416885 213.333313,122.004074 
	C218.188004,120.503914 220.865768,117.558052 219.880386,112.801262 
	C219.080154,108.938377 216.171448,106.786285 211.998627,106.375000 
	C211.998856,92.666725 211.998688,79.416656 211.998520,66.166580 
	C222.022308,66.119316 232.046097,66.072044 242.534119,66.553864 
	C242.998154,80.333023 242.997971,93.583092 242.621887,106.904541 
	C235.674133,108.824570 232.764069,114.356033 236.374130,118.619972 
	C237.739761,120.232964 240.093796,121.009109 241.997910,122.624916 
	C241.998138,136.333267 241.997772,149.583405 241.997391,162.833542 
z"/>
<path fill="#2A8CFF" opacity="1.000000" stroke="none" 
	d="
M242.438599,162.906067 
	C241.997772,149.583405 241.998138,136.333267 242.461792,122.552284 
	C252.283310,122.069931 261.641541,122.118416 270.999878,122.625092 
	C270.999298,136.333252 270.998627,149.583206 270.997955,162.833160 
	C269.199951,162.931625 267.401947,163.030106 265.012329,163.160980 
	C265.012329,169.810104 264.925934,176.488541 265.148193,183.156662 
	C265.170013,183.811447 267.087006,184.403091 268.561615,185.553406 
	C268.998840,199.332947 268.998810,212.583084 268.534943,225.904358 
	C259.380219,225.928085 250.689331,225.880692 241.998764,225.375092 
	C242.332138,211.666870 242.665176,198.416824 242.998215,185.166794 
	C244.490463,185.064789 245.982712,184.962784 247.735962,184.842926 
	C247.735962,177.739807 247.735962,170.639923 247.735962,162.978592 
	C246.076920,162.978592 244.478363,162.978592 242.438599,162.906067 
z"/>
<path fill="#4E60FF" opacity="1.000000" stroke="none" 
	d="
M436.000000,299.166382 
	C436.999237,297.901215 438.854736,296.645325 438.868591,295.369415 
	C439.059784,277.762238 438.997711,260.152283 438.997711,241.975983 
	C437.074158,241.975983 435.478333,241.975983 433.441650,241.455002 
	C433.667542,235.678177 434.334290,230.422348 435.001038,225.166504 
	C438.821594,225.111801 442.649933,224.878067 446.460968,225.043182 
	C452.600433,225.309235 455.985657,228.969437 455.992126,235.108826 
	C456.013824,255.726791 456.003662,276.344818 456.014618,297.899902 
	C456.030396,320.598694 456.037262,342.360382 456.044128,364.122070 
	C449.489685,364.012543 442.935211,363.903015 436.178711,362.978271 
	C435.984436,341.164154 435.992218,320.165283 436.000000,299.166382 
z"/>
<path fill="#16A5FF" opacity="1.000000" stroke="none" 
	d="
M167.997620,241.166870 
	C167.998474,252.491409 167.954742,263.816284 168.037277,275.140198 
	C168.054047,277.441772 168.546631,279.739929 168.908508,282.437500 
	C158.973480,282.883240 148.949814,282.931122 138.429855,282.496216 
	C137.622375,279.047333 137.047714,276.081818 137.040833,273.115021 
	C136.972809,243.798981 136.998901,214.482712 136.998352,185.166504 
	C145.355545,185.118912 153.712753,185.071304 162.534149,185.553543 
	C162.998123,199.333145 162.997910,212.582901 162.616806,225.904953 
	C161.176208,226.314880 160.079910,226.567612 159.063461,227.005646 
	C155.660263,228.472229 153.213745,230.990158 154.154236,234.779510 
	C155.085144,238.530167 157.297684,241.568283 162.088348,241.046204 
	C164.030655,240.834518 166.026260,241.111984 167.997620,241.166870 
z"/>
<path fill="#446DFF" opacity="1.000000" stroke="none" 
	d="
M375.445251,282.901550 
	C375.001221,250.581772 375.000275,218.332199 374.998962,185.624619 
	C382.074036,184.681900 388.900757,184.832626 395.035858,189.399857 
	C400.637573,193.569977 403.486572,199.052139 403.931610,205.766235 
	C404.270081,210.872559 403.924286,216.021133 404.051270,221.146744 
	C404.083130,222.432953 404.762024,223.703125 405.482605,225.470428 
	C405.548065,231.251328 405.274506,236.542450 405.000916,241.833557 
	C404.666901,248.154037 404.098145,254.472946 404.056244,260.795349 
	C403.999573,269.346893 400.166351,275.935883 392.791687,279.358063 
	C387.695648,281.722900 381.559631,281.846588 375.445251,282.901550 
z"/>
<path fill="#06B8FF" opacity="1.000000" stroke="none" 
	d="
M55.896736,298.958282 
	C56.597366,297.164246 57.892788,295.374939 57.906979,293.575470 
	C58.055450,274.744995 57.995205,255.912872 58.000111,237.081207 
	C58.002441,228.138275 61.138561,225.007660 70.081116,225.001541 
	C72.414177,224.999939 74.747246,225.015594 77.623260,225.463043 
	C78.776527,231.212753 79.386848,236.522720 79.997169,241.832703 
	C78.511627,241.932098 77.026085,242.031494 74.998756,242.167130 
	C74.998756,248.216614 74.998749,254.308304 74.998756,260.399994 
	C74.998779,271.674774 75.001129,282.949524 74.996605,294.224304 
	C74.995827,296.156708 74.460289,298.433563 77.787445,298.933411 
	C77.597000,301.661407 77.049622,303.615387 77.041916,305.571472 
	C76.973984,322.815125 76.969063,340.059296 77.047531,357.302856 
	C77.056343,359.240479 77.697510,361.175232 78.045441,363.111298 
	C71.749168,365.692139 65.335793,365.756470 58.329052,363.521484 
	C57.546833,360.738861 57.045635,358.440735 57.036522,356.140656 
	C56.969204,339.158783 57.037773,322.176331 56.951218,305.194611 
	C56.940617,303.114075 56.264458,301.036987 55.896736,298.958282 
z"/>
<path fill="#3085FF" opacity="1.000000" stroke="none" 
	d="
M271.461792,162.905594 
	C270.998627,149.583206 270.999298,136.333252 271.334229,122.464897 
	C275.279999,120.694664 277.855194,118.694542 278.013153,114.506744 
	C278.175476,110.202171 275.477264,108.234482 271.998840,106.375031 
	C271.999054,92.666862 271.998901,79.416901 271.998749,66.166939 
	C281.022461,66.119614 290.046204,66.072289 299.534119,66.554146 
	C300.011292,80.761925 300.024231,94.440521 299.887817,108.443542 
	C296.034760,112.255440 296.303772,115.992294 299.003937,120.311295 
	C298.977295,134.769989 298.987366,148.801468 298.997437,162.832947 
	C289.973511,162.881317 280.949585,162.929672 271.461792,162.905594 
z"/>
<path fill="#11ABFF" opacity="1.000000" stroke="none" 
	d="
M136.548019,185.095245 
	C136.998901,214.482712 136.972809,243.798981 137.040833,273.115021 
	C137.047714,276.081818 137.622375,279.047333 137.966248,282.422668 
	C127.707184,283.020386 117.886490,281.816742 112.274902,271.635559 
	C110.559113,268.522552 109.484001,264.797791 109.132477,261.252350 
	C108.611549,255.998459 109.061722,250.653244 108.945595,245.350235 
	C108.921112,244.232193 108.235840,243.128632 107.426514,241.468994 
	C106.997444,235.668747 106.996902,230.417923 106.996368,225.167084 
	C107.663422,223.953506 108.855042,222.762497 108.908401,221.522507 
	C109.165009,215.559937 108.385849,209.466522 109.327042,203.637970 
	C111.186264,192.124222 121.668755,184.136063 133.109253,184.992905 
	C134.100601,185.067154 135.101318,185.016571 136.548019,185.095245 
z"/>
<path fill="#4072FF" opacity="1.000000" stroke="none" 
	d="
M354.999542,66.166656 
	C363.023376,66.119377 371.047241,66.072098 379.535187,66.553802 
	C379.999481,96.208801 380.026825,125.334900 379.956238,154.460754 
	C379.949463,157.252289 379.332611,160.042358 378.999023,162.833115 
	C370.975372,162.881104 362.951721,162.929092 354.431366,162.496002 
	C353.623199,159.066818 353.076843,156.121445 353.042572,153.170120 
	C352.921509,142.740509 352.975769,132.308853 353.138855,121.560974 
	C355.195831,119.484169 357.788757,118.057388 358.802856,115.891418 
	C360.608185,112.035484 357.072449,109.714546 354.969360,106.641785 
	C354.985321,92.832764 354.992432,79.499710 354.999542,66.166656 
z"/>
<path fill="#15A6FF" opacity="1.000000" stroke="none" 
	d="
M131.999466,66.166367 
	C139.689789,66.118820 147.380112,66.071281 155.534637,66.553246 
	C155.999298,78.836670 155.950363,90.591019 156.050140,102.344101 
	C156.066284,104.246513 156.742783,106.143318 156.959473,108.372864 
	C152.829849,113.708389 152.863708,115.741905 156.905640,120.586884 
	C156.543442,123.281418 156.052979,125.578484 156.037003,127.878838 
	C155.956131,139.529938 155.998535,151.181915 155.997726,162.833588 
	C148.307388,162.882339 140.617050,162.931091 132.463226,162.448654 
	C131.999649,130.000412 131.999557,98.083389 131.999466,66.166367 
z"/>
<path fill="#446DFF" opacity="1.000000" stroke="none" 
	d="
M379.432434,162.904572 
	C379.332611,160.042358 379.949463,157.252289 379.956238,154.460754 
	C380.026825,125.334900 379.999481,96.208801 379.998962,66.624763 
	C394.846039,65.383804 403.998535,73.974770 403.998871,88.695419 
	C403.999237,105.499611 403.616577,122.315224 404.118591,139.104416 
	C404.528320,152.807159 394.095276,163.822006 379.432434,162.904572 
z"/>
<path fill="#11ABFF" opacity="1.000000" stroke="none" 
	d="
M131.568832,66.094795 
	C131.999557,98.083389 131.999649,130.000412 131.999603,162.375519 
	C120.173210,163.908615 109.127663,153.125397 109.037064,141.630020 
	C108.891335,123.139549 108.587570,104.634331 109.162216,86.160591 
	C109.472328,76.190880 117.507812,65.118881 131.568832,66.094795 
z"/>
<path fill="#525BFF" opacity="1.000000" stroke="none" 
	d="
M456.431396,364.069336 
	C456.037262,342.360382 456.030396,320.598694 456.032776,298.361053 
	C468.258698,301.450867 477.054749,308.525299 480.113892,321.437408 
	C484.389313,339.483429 476.165253,359.724396 456.431396,364.069336 
z"/>
<path fill="#2198FF" opacity="1.000000" stroke="none" 
	d="
M197.364868,389.900696 
	C196.665482,387.386597 196.053848,384.940857 196.044662,382.492920 
	C195.972641,363.274567 196.015961,344.055786 196.033112,324.361267 
	C209.629623,327.852478 218.630295,336.860809 220.723648,350.612122 
	C223.140259,366.486969 218.239578,380.110199 201.229401,388.334778 
	C200.071075,388.894836 198.897964,389.424347 197.364868,389.900696 
z"/>
<path fill="#1F9AFF" opacity="1.000000" stroke="none" 
	d="
M212.999496,122.166794 
	C212.999344,135.416885 212.999207,148.666962 212.998749,162.375061 
	C203.307419,162.881851 193.616394,162.930618 183.462158,162.448273 
	C182.998596,148.666992 182.998276,135.416809 183.461731,122.093559 
	C193.616837,122.069260 203.308167,122.118027 212.999496,122.166794 
z"/>
<path fill="#2E87FF" opacity="1.000000" stroke="none" 
	d="
M266.374817,446.899139 
	C265.999084,427.918060 265.968231,409.002594 266.038788,390.087524 
	C266.047974,387.630463 266.580322,385.175385 266.956482,382.302612 
	C279.470154,385.050598 286.528229,393.621124 289.915527,405.401581 
	C294.701752,422.047211 284.451233,442.416779 266.374817,446.899139 
z"/>
<path fill="#3481FF" opacity="1.000000" stroke="none" 
	d="
M300.037170,108.119125 
	C300.024231,94.440521 300.011292,80.761925 299.997833,66.625351 
	C309.354248,66.120270 318.711182,66.073158 328.532562,66.554726 
	C328.996674,80.333183 328.996368,93.582970 328.532471,106.903435 
	C320.604919,106.982758 313.139740,106.918442 305.678009,107.050919 
	C303.791992,107.084404 301.917145,107.746101 300.037170,108.119125 
z"/>
<path fill="#1F9AFF" opacity="1.000000" stroke="none" 
	d="
M211.534698,66.095551 
	C211.998688,79.416656 211.998856,92.666725 211.534805,106.446045 
	C201.713150,106.928055 192.355713,106.880821 182.998703,106.375366 
	C182.998917,92.666977 182.998688,79.416809 182.998459,66.166656 
	C192.355942,66.119278 201.713409,66.071899 211.534698,66.095551 
z"/>
<path fill="#2A8CFF" opacity="1.000000" stroke="none" 
	d="
M271.534912,66.095993 
	C271.998901,79.416901 271.999054,92.666862 271.535004,106.446014 
	C261.713165,106.927856 252.355469,106.880508 242.997787,106.833160 
	C242.997971,93.583092 242.998154,80.333023 242.997833,66.624924 
	C252.355209,66.119621 261.713135,66.072334 271.534912,66.095993 
z"/>
<path fill="#3481FF" opacity="1.000000" stroke="none" 
	d="
M314.514587,324.974182 
	C315.260376,327.023743 315.942444,329.093384 315.951294,331.165924 
	C316.033539,350.416138 315.999878,369.666840 315.999634,389.375427 
	C301.925598,386.711182 292.480225,373.031891 292.080109,361.295746 
	C291.435059,342.377228 299.618347,329.315216 314.514587,324.974182 
z"/>
<path fill="#03BDFF" opacity="1.000000" stroke="none" 
	d="
M55.522591,298.985474 
	C56.264458,301.036987 56.940617,303.114075 56.951218,305.194611 
	C57.037773,322.176331 56.969204,339.158783 57.036522,356.140656 
	C57.045635,358.440735 57.546833,360.738861 57.909203,363.435547 
	C45.587891,362.172699 32.656963,346.741730 32.826771,332.562927 
	C32.984600,319.384674 37.682491,309.191650 48.622051,301.961060 
	C50.588177,300.661530 52.962555,299.979675 55.522591,298.985474 
z"/>
<path fill="#0AB3FF" opacity="1.000000" stroke="none" 
	d="
M78.423813,363.063110 
	C77.697510,361.175232 77.056343,359.240479 77.047531,357.302856 
	C76.969063,340.059296 76.973984,322.815125 77.041916,305.571472 
	C77.049622,303.615387 77.597000,301.661407 77.993362,299.292786 
	C97.338547,305.151306 105.895950,325.832611 98.684586,344.331909 
	C95.224258,353.208679 88.702980,360.274597 78.423813,363.063110 
z"/>
<path fill="#3B78FF" opacity="1.000000" stroke="none" 
	d="
M352.963562,121.877975 
	C352.975769,132.308853 352.921509,142.740509 353.042572,153.170120 
	C353.076843,156.121445 353.623199,159.066818 353.967651,162.424225 
	C344.309296,162.881592 334.618011,162.929672 324.552490,162.507965 
	C324.452118,159.738708 324.945190,157.440903 324.962524,155.139526 
	C325.045258,144.149155 324.998840,133.157822 325.462219,122.094597 
	C334.938568,121.974236 343.951080,121.926102 352.963562,121.877975 
z"/>
<path fill="#387CFF" opacity="1.000000" stroke="none" 
	d="
M346.533875,185.096069 
	C346.665100,191.938644 346.208862,198.707336 346.035553,205.483276 
	C345.869995,211.957138 345.998962,218.438538 345.534302,225.445557 
	C336.046417,225.927353 327.022705,225.880203 317.999207,225.374863 
	C317.999115,211.666794 317.998749,198.416931 317.998352,185.167053 
	C327.355621,185.119812 336.712860,185.072571 346.533875,185.096069 
z"/>
<path fill="#3B78FF" opacity="1.000000" stroke="none" 
	d="
M338.479797,389.025909 
	C337.739410,387.134064 337.055878,385.222626 337.048676,383.308655 
	C336.976471,364.151703 337.015564,344.994293 337.032654,325.361084 
	C347.124207,326.437653 358.953186,339.887360 360.032379,351.819366 
	C360.985931,362.362122 359.253662,372.247498 351.817078,380.037628 
	C348.263275,383.760315 343.219452,386.060608 338.479797,389.025909 
z"/>
<path fill="#1AA1FF" opacity="1.000000" stroke="none" 
	d="
M175.580322,324.935913 
	C175.972168,346.229034 175.986053,367.573059 175.999771,389.375061 
	C164.330902,385.294281 156.066330,377.329071 153.545639,364.917145 
	C150.006271,347.489166 157.722473,331.135925 175.580322,324.935913 
z"/>
<path fill="#1AA1FF" opacity="1.000000" stroke="none" 
	d="
M182.997955,122.166626 
	C182.998276,135.416809 182.998596,148.666992 182.998413,162.375198 
	C174.307022,162.882095 165.616150,162.930969 156.461502,162.906708 
	C155.998535,151.181915 155.956131,139.529938 156.037003,127.878838 
	C156.052979,125.578484 156.543442,123.281418 157.288010,120.654007 
	C159.906540,120.883209 162.035522,121.833176 164.200912,121.925087 
	C170.458740,122.190681 176.731232,122.110840 182.997955,122.166626 
z"/>
<path fill="#1AA1FF" opacity="1.000000" stroke="none" 
	d="
M182.534668,66.095428 
	C182.998688,79.416809 182.998917,92.666977 182.534927,106.446526 
	C173.751831,107.331512 165.432922,107.687119 157.114029,108.042725 
	C156.742783,106.143318 156.066284,104.246513 156.050140,102.344101 
	C155.950363,90.591019 155.999298,78.836670 155.998291,66.624695 
	C164.688812,66.119164 173.379852,66.071686 182.534668,66.095428 
z"/>
<path fill="#2198FF" opacity="1.000000" stroke="none" 
	d="
M188.996582,185.167175 
	C197.688156,185.119293 206.379745,185.071426 215.535385,185.552948 
	C215.999435,199.332748 215.999420,212.583176 215.535522,225.904953 
	C206.379929,225.928558 197.688171,225.880798 188.997101,225.374863 
	C188.997375,211.666840 188.996979,198.417007 188.996582,185.167175 
z"/>
<path fill="#3481FF" opacity="1.000000" stroke="none" 
	d="
M324.998352,122.166824 
	C324.998840,133.157822 325.045258,144.149155 324.962524,155.139526 
	C324.945190,157.440903 324.452118,159.738708 324.088745,162.435745 
	C315.974579,162.881241 307.950012,162.929184 299.461426,162.905029 
	C298.987366,148.801468 298.977295,134.769989 299.360413,120.485588 
	C302.555969,120.821846 305.338501,121.767670 308.164856,121.924713 
	C313.763214,122.235794 319.385803,122.111275 324.998352,122.166824 
z"/>
<path fill="#4B65FF" opacity="1.000000" stroke="none" 
	d="
M435.634277,299.101746 
	C435.992218,320.165283 435.984436,341.164154 435.967407,362.638977 
	C425.949921,361.174927 416.111298,349.569305 413.871826,338.677826 
	C411.349487,326.410767 414.722565,315.987762 422.702667,307.143127 
	C425.926208,303.570343 431.023804,301.688477 435.634277,299.101746 
z"/>
<path fill="#2593FF" opacity="1.000000" stroke="none" 
	d="
M244.744537,382.108154 
	C244.989838,403.165680 244.982880,424.163788 244.966766,445.637695 
	C236.803070,443.865845 230.932175,438.787231 226.905655,431.467651 
	C216.855042,413.197144 223.938644,391.871460 242.732880,382.886200 
	C243.555222,382.600403 243.787048,382.405853 243.990143,382.177063 
	C244.157532,382.134308 244.324921,382.091522 244.744537,382.108154 
z"/>
<path fill="#2593FF" opacity="1.000000" stroke="none" 
	d="
M215.999390,225.833588 
	C215.999420,212.583176 215.999435,199.332748 215.999161,185.624268 
	C224.689468,185.119019 233.380081,185.071823 242.534454,185.095703 
	C242.665176,198.416824 242.332138,211.666870 241.534958,225.446152 
	C232.713684,225.928131 224.356537,225.880859 215.999390,225.833588 
z"/>
<path fill="#1AA1FF" opacity="1.000000" stroke="none" 
	d="
M188.532928,185.096313 
	C188.996979,198.417007 188.997375,211.666840 188.533447,225.445709 
	C179.711975,225.927399 171.354843,225.880035 162.997696,225.832657 
	C162.997910,212.582901 162.998123,199.333145 162.997742,185.625397 
	C171.354523,185.120071 179.711884,185.072754 188.532928,185.096313 
z"/>
<path fill="#3B78FF" opacity="1.000000" stroke="none" 
	d="
M328.996063,106.832756 
	C328.996368,93.582970 328.996674,80.333183 328.996216,66.625427 
	C337.354187,66.119911 345.712952,66.072372 354.535645,66.095734 
	C354.992432,79.499710 354.985321,92.832764 354.505676,106.590813 
	C345.687439,106.954781 337.341766,106.893768 328.996063,106.832756 
z"/>
<path fill="#2593FF" opacity="1.000000" stroke="none" 
	d="
M243.997772,241.166656 
	C243.664978,247.607758 243.188995,254.045517 243.037704,260.490875 
	C242.870087,267.631104 242.999329,274.778259 242.999054,282.380798 
	C236.307999,282.885437 229.617172,282.931671 222.344727,282.585449 
	C220.509659,279.642609 218.205612,277.100922 218.184509,274.540405 
	C218.092880,263.418823 218.666733,252.291763 219.462463,241.094101 
	C227.950073,241.069885 235.973923,241.118271 243.997772,241.166656 
z"/>
<path fill="#2E87FF" opacity="1.000000" stroke="none" 
	d="
M268.998779,225.833237 
	C268.998810,212.583084 268.998840,199.332947 268.998535,185.624786 
	C277.022003,185.119446 285.045807,185.072144 293.533997,185.553864 
	C293.998169,199.333008 293.997925,212.583130 293.533936,225.904221 
	C285.046417,225.927872 277.022583,225.880554 268.998779,225.833237 
z"/>
<path fill="#3481FF" opacity="1.000000" stroke="none" 
	d="
M312.999084,241.166367 
	C313.331329,254.749161 313.663605,268.331940 313.993408,282.372589 
	C313.543549,282.876740 313.096130,282.923035 312.206329,282.812500 
	C311.478882,282.545685 311.227661,282.605743 311.010284,282.835846 
	C310.837738,282.876556 310.665192,282.917297 310.124939,282.810486 
	C309.477295,282.551880 309.228241,282.608978 309.010162,282.834259 
	C304.314545,282.882202 299.618896,282.930145 294.338501,282.581390 
	C290.659149,279.997620 289.902161,277.061279 289.892700,273.290009 
	C289.865906,262.581360 289.333282,251.873978 289.463501,241.094025 
	C297.617859,241.070084 305.308472,241.118225 312.999084,241.166367 
z"/>
<path fill="#3481FF" opacity="1.000000" stroke="none" 
	d="
M293.997681,225.833252 
	C293.997925,212.583130 293.998169,199.333008 293.997711,185.624878 
	C301.688324,185.119522 309.379608,185.072205 317.534607,185.095978 
	C317.998749,198.416931 317.999115,211.666794 317.535400,225.445923 
	C309.380096,225.927872 301.688904,225.880554 293.997681,225.833252 
z"/>
<path fill="#2E87FF" opacity="1.000000" stroke="none" 
	d="
M288.999817,241.166092 
	C289.333282,251.873978 289.865906,262.581360 289.892700,273.290009 
	C289.902161,277.061279 290.659149,279.997620 293.877258,282.509247 
	C284.975861,282.881683 275.950928,282.929626 266.462097,282.905273 
	C266.332031,269.249542 266.665802,255.666122 267.462982,241.552338 
	C274.950836,241.070023 281.975342,241.118057 288.999817,241.166092 
z"/>
<path fill="#2198FF" opacity="1.000000" stroke="none" 
	d="
M218.998703,241.166687 
	C218.666733,252.291763 218.092880,263.418823 218.184509,274.540405 
	C218.205612,277.100922 220.509659,279.642609 221.881134,282.512756 
	C213.656036,282.893768 205.312881,282.954987 196.506042,283.065125 
	C196.361603,271.689087 196.647018,260.263000 197.028473,248.840149 
	C197.105240,246.541229 197.546402,244.254501 198.372711,241.491623 
	C205.616821,241.069626 212.307755,241.118164 218.998703,241.166687 
z"/>
<path fill="#4B65FF" opacity="1.000000" stroke="none" 
	d="
M405.464600,241.905167 
	C405.274506,236.542450 405.548065,231.251328 405.910522,225.563477 
	C415.357239,225.119370 424.715088,225.072006 434.536987,225.095581 
	C434.334290,230.422348 433.667542,235.678177 433.000977,241.383759 
	C423.976868,241.881256 414.952545,241.929016 405.464600,241.905167 
z"/>
<path fill="#0AB3FF" opacity="1.000000" stroke="none" 
	d="
M106.532768,225.095810 
	C106.996902,230.417923 106.997444,235.668747 106.997314,241.376221 
	C98.306000,241.881958 89.615341,241.931046 80.460930,241.906418 
	C79.386848,236.522720 78.776527,231.212753 78.081688,225.535080 
	C87.354507,225.119766 96.711845,225.072159 106.532768,225.095810 
z"/>
<path fill="#2E87FF" opacity="1.000000" stroke="none" 
	d="
M309.251282,282.893982 
	C309.228241,282.608978 309.477295,282.551880 309.866119,282.749329 
	C309.974976,282.835754 309.492371,282.953735 309.251282,282.893982 
z"/>
<path fill="#387CFF" opacity="1.000000" stroke="none" 
	d="
M311.254211,282.894226 
	C311.227661,282.605743 311.478882,282.545685 311.874268,282.743073 
	C311.822418,282.871185 311.660248,282.911896 311.254211,282.894226 
z"/>
<path fill="#2A8CFF" opacity="1.000000" stroke="none" 
	d="
M243.728058,382.147339 
	C243.787048,382.405853 243.555222,382.600403 243.091431,382.863129 
	C243.080780,382.682892 243.273392,382.400269 243.728058,382.147339 
z"/>
<path fill="#000000" opacity="1.000000" stroke="none" 
	d="
M219.462463,241.094101 
	C212.307755,241.118164 205.616821,241.069626 198.462219,241.093872 
	C188.307419,241.117752 178.616257,241.068848 168.461365,241.093414 
	C166.026260,241.111984 164.030655,240.834518 162.088348,241.046204 
	C157.297684,241.568283 155.085144,238.530167 154.154236,234.779510 
	C153.213745,230.990158 155.660263,228.472229 159.063461,227.005646 
	C160.079910,226.567612 161.176208,226.314880 162.616806,225.904953 
	C171.354843,225.880035 179.711975,225.927399 188.532776,225.903900 
	C197.688171,225.880798 206.379929,225.928558 215.535522,225.904968 
	C224.356537,225.880859 232.713684,225.928131 241.534637,225.904358 
	C250.689331,225.880692 259.380219,225.928085 268.534943,225.904358 
	C277.022583,225.880554 285.046417,225.927872 293.533936,225.904205 
	C301.688904,225.880554 309.380096,225.927872 317.535156,225.904114 
	C327.022705,225.880203 336.046417,225.927353 345.533905,225.903748 
	C348.719360,226.211990 351.491943,226.378967 354.151306,227.017670 
	C358.581757,228.081772 359.641174,231.739090 358.824829,235.402328 
	C358.113434,238.594528 355.816833,241.139526 351.843384,241.015656 
	C349.200684,240.933289 346.552826,241.014664 343.453003,241.094543 
	C333.308075,241.118408 323.617462,241.070465 313.462952,241.094452 
	C305.308472,241.118225 297.617859,241.070084 289.463531,241.094025 
	C281.975342,241.118057 274.950836,241.070023 267.462585,241.094116 
	C259.641022,241.118011 252.283249,241.069778 244.461609,241.094116 
	C235.973923,241.118271 227.950073,241.069885 219.462463,241.094101 
z"/>
<path fill="#000000" opacity="1.000000" stroke="none" 
	d="
M156.959473,108.372864 
	C165.432922,107.687119 173.751831,107.331512 182.534500,106.904755 
	C192.355713,106.880821 201.713150,106.928055 211.534393,106.904251 
	C216.171448,106.786285 219.080154,108.938377 219.880386,112.801262 
	C220.865768,117.558052 218.188004,120.503914 213.333313,122.004074 
	C203.308167,122.118027 193.616837,122.069260 183.461731,122.093559 
	C176.731232,122.110840 170.458740,122.190681 164.200912,121.925087 
	C162.035522,121.833176 159.906540,120.883209 157.378540,120.258049 
	C152.863708,115.741905 152.829849,113.708389 156.959473,108.372864 
z"/>
<path fill="#000000" opacity="1.000000" stroke="none" 
	d="
M242.621887,106.904541 
	C252.355469,106.880508 261.713165,106.927856 271.534668,106.904221 
	C275.477264,108.234482 278.175476,110.202171 278.013153,114.506744 
	C277.855194,118.694542 275.279999,120.694664 271.334106,122.006699 
	C261.641541,122.118416 252.283310,122.069931 242.461182,122.094078 
	C240.093796,121.009109 237.739761,120.232964 236.374130,118.619972 
	C232.764069,114.356033 235.674133,108.824570 242.621887,106.904541 
z"/>
<path fill="#000000" opacity="1.000000" stroke="none" 
	d="
M328.532471,106.903435 
	C337.341766,106.893768 345.687439,106.954781 354.496826,107.066772 
	C357.072449,109.714546 360.608185,112.035484 358.802856,115.891418 
	C357.788757,118.057388 355.195831,119.484169 353.138885,121.560974 
	C343.951080,121.926102 334.938568,121.974236 325.462219,122.094597 
	C319.385803,122.111275 313.763214,122.235794 308.164856,121.924713 
	C305.338501,121.767670 302.555969,120.821846 299.397125,120.058380 
	C296.303772,115.992294 296.034760,112.255440 299.887817,108.443550 
	C301.917145,107.746101 303.791992,107.084404 305.678009,107.050919 
	C313.139740,106.918442 320.604919,106.982758 328.532471,106.903435 
z"/>
</svg>