<svg version="1.1" id="Layer_1" xmlns="http://www.w3.org/2000/svg" xmlns:xlink="http://www.w3.org/1999/xlink" x="0px" y="0px"
	 width="100%" viewBox="0 0 512 512" enable-background="new 0 0 512 512" xml:space="preserve">
<path fill="#000000" opacity="1.000000" stroke="none" 
	d="
M1.000000,184.000000 
	C1.000000,122.666664 1.000000,61.833332 1.000000,1.000000 
	C171.666672,1.000000 342.333344,1.000000 513.000000,1.000000 
	C513.000000,171.666672 513.000000,342.333344 513.000000,513.000000 
	C342.333344,513.000000 171.666672,513.000000 1.000000,513.000000 
	C1.000000,403.500000 1.000000,294.000000 1.000000,184.000000 
M486.000000,235.500000 
	C486.000031,181.833832 485.780731,128.166214 486.139618,74.502441 
	C486.241455,59.271729 473.605286,45.899792 457.350403,45.932526 
	C381.851257,46.084572 306.351624,45.999870 230.852188,45.999905 
	C229.066757,45.999905 227.281326,45.999905 225.344330,45.999905 
	C225.344330,50.908871 225.344330,55.286949 225.344330,59.663040 
	C279.190979,59.323963 314.945801,101.517166 315.746155,147.283051 
	C316.130493,169.260696 308.244995,189.288284 293.478668,205.812302 
	C275.442871,225.994919 252.148102,235.377884 225.414459,235.891113 
	C225.196930,237.077911 225.030624,237.554092 225.034195,238.028992 
	C225.119431,249.371536 215.098053,260.363892 202.327850,260.202026 
	C159.668350,259.661407 116.997742,259.996338 74.331390,259.995850 
	C72.392128,259.995819 70.452873,259.995819 68.400009,259.995819 
	C68.400009,283.368713 68.400009,306.069458 68.400009,328.694641 
	C207.726349,328.694641 346.652252,328.694641 486.000000,328.694641 
	C486.000000,297.760803 486.000000,267.130402 486.000000,235.500000 
M207.484146,248.628433 
	C212.518021,246.049454 214.061417,241.812027 214.054550,236.339218 
	C213.970154,169.025406 214.002213,101.711449 213.996185,34.397522 
	C213.995422,25.837212 210.127136,22.004318 201.492661,22.003263 
	C148.341324,21.996775 95.189125,22.157206 42.039352,21.867783 
	C31.293589,21.809269 26.953568,26.038767 26.973145,37.161186 
	C27.038839,74.483643 26.997675,111.806290 26.997887,149.128860 
	C26.998051,178.120499 26.983213,207.112152 27.009140,236.103760 
	C27.016819,244.691681 31.297190,248.991150 39.718143,248.996872 
	C54.880432,249.007172 70.042747,249.012085 85.205025,248.997650 
	C125.691559,248.959061 166.178070,248.909027 207.484146,248.628433 
M295.500000,397.999542 
	C348.994812,397.999390 402.489899,397.907379 455.984314,398.051727 
	C473.386749,398.098663 487.380493,385.016083 486.089233,367.815155 
	C485.554291,360.689270 485.697418,353.472565 486.103912,346.329681 
	C486.386963,341.355713 484.964172,339.844452 479.795013,339.877075 
	C442.966553,340.109375 406.135925,339.978821 369.306030,340.013214 
	C357.667877,340.024078 358.687134,338.799042 359.108398,350.532623 
	C359.615387,364.651825 348.123657,374.960175 334.734711,374.978455 
	C295.905060,375.031433 257.075134,375.046021 218.245636,374.947235 
	C211.937653,374.931183 206.470352,372.538727 201.644730,368.212402 
	C194.575195,361.874237 193.390198,353.829529 194.033371,345.126495 
	C194.311371,341.364807 193.206680,339.900513 189.093246,339.916168 
	C150.430725,340.063141 111.767281,340.045685 73.104507,339.935974 
	C69.318489,339.925232 67.686836,340.842682 67.919800,344.939667 
	C68.240929,350.587494 67.790840,356.277161 68.057167,361.930695 
	C68.312737,367.355927 68.320801,372.961151 69.740204,378.129578 
	C73.120949,390.439819 84.500839,397.987274 98.518120,397.991028 
	C163.845413,398.008575 229.172699,397.999268 295.500000,397.999542 
M236.507095,451.001221 
	C266.331116,451.000366 296.155457,450.936218 325.978821,451.075439 
	C329.891815,451.093719 331.171661,449.946442 331.079468,445.994781 
	C330.838531,435.670288 330.747498,425.327576 331.110779,415.010254 
	C331.281677,410.156738 329.800415,408.860321 324.981262,408.891418 
	C292.659363,409.100128 260.335480,408.995972 228.012253,409.010590 
	C226.228912,409.011383 224.445633,409.166656 222.401443,409.262238 
	C222.401443,423.216400 222.401443,436.785492 222.401443,451.001221 
	C226.949814,451.001221 231.230759,451.001221 236.507095,451.001221 
M271.500000,462.000305 
	C245.021652,462.000671 218.543015,462.073883 192.065079,461.969360 
	C179.580048,461.920074 175.680176,469.352783 179.123260,480.999115 
	C180.837601,480.999115 182.657593,480.999146 184.477585,480.999146 
	C246.093872,480.999176 307.710175,480.999512 369.326447,480.997131 
	C370.658386,480.997070 372.001129,481.061584 373.318115,480.912598 
	C374.086548,480.825653 375.086700,480.591431 375.516418,480.052063 
	C379.008148,475.669464 374.951813,464.532410 369.246033,463.092224 
	C366.552979,462.412476 363.706055,462.052643 360.927582,462.045776 
	C331.451874,461.972992 301.975891,462.000427 271.500000,462.000305 
M273.985992,142.641602 
	C273.809296,145.243073 274.215942,146.856689 277.595245,147.122391 
	C285.643097,147.755127 293.636597,149.066986 301.681458,149.765701 
	C302.666046,149.851212 304.831360,147.776215 304.748077,146.856598 
	C304.229004,141.126953 303.640808,135.342346 302.311523,129.757782 
	C295.996674,103.227776 279.340729,85.338875 254.397202,75.558235 
	C246.465790,72.448227 237.332062,72.340454 228.709641,71.137207 
	C227.622559,70.985497 225.263290,72.508095 225.241501,73.302856 
	C224.992722,82.383209 225.083252,91.472847 225.083252,100.747871 
	C235.981888,100.949509 245.411728,103.587471 253.836777,109.346642 
	C265.308502,117.188431 271.383453,128.402832 273.985992,142.641602 
M248.884232,151.858200 
	C245.582962,163.596649 237.600327,169.230637 225.343170,169.317215 
	C225.343170,173.901779 225.343170,178.121124 225.343170,182.243896 
	C236.444351,185.342300 250.313263,177.876816 256.798370,168.313522 
	C265.889435,154.907364 265.241638,138.879242 255.828796,125.625046 
	C249.901016,117.278198 235.144073,109.983269 225.375000,112.843918 
	C225.375000,117.021088 225.375000,121.246765 225.375000,125.430855 
	C242.910843,127.197975 250.498505,137.845612 248.884232,151.858200 
M266.478821,214.022675 
	C269.166870,212.217606 271.854889,210.412537 275.034180,208.277573 
	C270.749878,203.384811 266.957275,198.852142 262.936340,194.531998 
	C260.229889,191.624161 257.596069,187.883270 254.171539,186.688660 
	C252.025711,185.940125 248.483795,189.244217 245.543625,190.679443 
	C244.961075,190.963806 244.269882,191.035187 243.622452,191.175522 
	C237.575455,192.486404 231.527084,193.790894 225.027710,195.194748 
	C225.027710,203.714630 225.042068,212.507751 225.019485,221.300797 
	C225.012146,224.156525 226.646835,224.125473 228.953140,224.167801 
	C242.210815,224.411148 254.378738,220.700729 266.478821,214.022675 
M271.006866,187.508423 
	C274.978455,191.908554 278.950043,196.308701 282.970154,200.762558 
	C292.916565,190.618561 298.908173,179.152985 302.292236,166.023026 
	C303.660126,160.715714 300.954376,160.418640 297.460327,160.031357 
	C291.069794,159.323059 284.678314,158.502991 278.264893,158.194901 
	C276.345276,158.102676 273.360779,158.996429 272.564362,160.401886 
	C269.268005,166.219086 266.623199,172.405502 263.431305,179.102097 
	C265.459503,181.367554 267.983276,184.186554 271.006866,187.508423 
M296.998840,343.714600 
	C297.362122,341.035187 296.476044,339.836823 293.497314,339.940308 
	C287.523651,340.147797 281.537628,340.000000 275.556732,339.999573 
	C269.144409,339.999115 262.732086,339.999451 256.403717,339.999451 
	C256.403717,348.393951 256.403717,356.090607 256.403717,363.734497 
	C270.038605,363.734497 283.269012,363.734497 297.000000,363.734497 
	C297.000000,357.211182 297.000000,350.942535 296.998840,343.714600 
M308.000183,350.526947 
	C308.003357,353.680450 308.142822,356.841431 307.970459,359.985321 
	C307.805695,362.990662 308.954224,364.095398 311.987274,364.040436 
	C319.951385,363.896088 327.922516,364.120941 335.885773,363.955292 
	C343.245392,363.802216 347.938202,358.732941 347.995422,351.264679 
	C348.011963,349.107178 347.816162,346.930817 348.036011,344.795868 
	C348.412903,341.135254 347.064301,339.824677 343.295044,339.928772 
	C334.670990,340.166901 326.035858,340.001129 317.405212,340.000946 
	C308.002319,340.000702 308.002319,340.001465 308.000183,350.526947 
M234.463715,364.001648 
	C236.289627,364.000824 238.133484,363.835876 239.937744,364.033142 
	C243.752609,364.450226 245.341721,363.110474 245.072220,359.064941 
	C244.752975,354.272461 244.773346,349.428833 245.066284,344.633057 
	C245.302917,340.758850 243.703629,339.843842 240.138641,339.936493 
	C232.010605,340.147675 223.873276,340.000702 215.739731,340.000427 
	C204.841812,340.000061 204.841843,340.000549 205.001648,350.696136 
	C205.117416,358.442505 210.125854,363.654083 218.037643,363.953003 
	C223.176163,364.147156 228.327682,363.997345 234.463715,364.001648 
M237.226501,143.634567 
	C234.487244,137.993225 231.373322,136.418060 225.325012,137.785324 
	C225.325012,144.276047 225.325012,150.817307 225.325012,157.291046 
	C234.581314,159.167023 238.751678,154.642914 237.226501,143.634567 
z"/>
<path fill="#2A7ABD" opacity="1.000000" stroke="none" 
	d="
M486.000000,236.000000 
	C486.000000,267.130402 486.000000,297.760803 486.000000,328.694641 
	C346.652252,328.694641 207.726349,328.694641 68.400009,328.694641 
	C68.400009,306.069458 68.400009,283.368713 68.400009,259.995819 
	C70.452873,259.995819 72.392128,259.995819 74.331390,259.995850 
	C116.997742,259.996338 159.668350,259.661407 202.327850,260.202026 
	C215.098053,260.363892 225.119431,249.371536 225.034195,238.028992 
	C225.030624,237.554092 225.196930,237.077911 225.414459,235.891113 
	C252.148102,235.377884 275.442871,225.994919 293.478668,205.812302 
	C308.244995,189.288284 316.130493,169.260696 315.746155,147.283051 
	C314.945801,101.517166 279.190979,59.323963 225.344330,59.663040 
	C225.344330,55.286949 225.344330,50.908871 225.344330,45.999905 
	C227.281326,45.999905 229.066757,45.999905 230.852188,45.999905 
	C306.351624,45.999870 381.851257,46.084572 457.350403,45.932526 
	C473.605286,45.899792 486.241455,59.271729 486.139618,74.502441 
	C485.780731,128.166214 486.000031,181.833832 486.000000,236.000000 
M277.500000,307.999542 
	C334.950562,307.999542 392.401154,307.999603 449.851715,307.999268 
	C451.183899,307.999268 452.522736,308.079559 453.846954,307.975525 
	C457.592987,307.681274 460.630402,305.445618 460.629761,302.023346 
	C460.629089,298.428741 457.678253,296.904694 453.629120,296.912323 
	C387.852600,297.035889 322.075775,297.016876 256.299103,296.956329 
	C252.514130,296.952850 249.608688,297.933105 249.094482,301.968262 
	C248.643295,305.508911 251.818054,307.942017 256.517334,307.983765 
	C263.177765,308.042938 269.839081,307.999268 277.500000,307.999542 
M400.000061,118.434410 
	C400.000092,120.097641 399.993134,121.760902 400.001465,123.424088 
	C400.034790,130.080597 401.888916,131.985535 408.469818,131.993744 
	C423.438934,132.012436 438.408234,132.029526 453.377228,131.983246 
	C458.806976,131.966446 460.956451,129.896530 460.977478,124.571800 
	C461.037262,109.436546 461.046875,94.300659 460.970856,79.165550 
	C460.945068,74.034508 458.798615,72.013000 453.769226,72.006584 
	C438.633759,71.987267 423.498260,71.996231 408.362762,72.000755 
	C401.682587,72.002754 400.016357,73.684120 400.005646,80.528168 
	C399.986420,92.836121 400.000122,105.144119 400.000061,118.434410 
M458.321045,232.874771 
	C455.660736,232.249893 453.003021,231.094711 450.339752,231.081894 
	C422.723358,230.949005 395.106049,230.993439 367.489044,231.018997 
	C366.017731,231.020355 364.537750,231.234375 363.077271,231.452637 
	C359.539673,231.981293 356.674652,233.363846 357.070099,237.598663 
	C357.465576,241.833633 360.878876,242.450729 364.199097,242.972107 
	C365.011383,243.099670 365.859833,242.999466 366.691650,242.999481 
	C394.641418,242.999939 422.591248,243.014923 450.540924,242.964172 
	C452.309387,242.960968 454.149780,242.670074 455.831116,242.125351 
	C460.757324,240.529465 461.618500,237.912827 458.321045,232.874771 
M349.500000,263.999512 
	C338.182678,263.999512 326.865387,263.998749 315.548065,263.999969 
	C312.053040,264.000366 308.548279,263.844788 305.065643,264.054077 
	C301.477722,264.269684 298.987854,266.371399 299.142548,269.986816 
	C299.287445,273.372833 301.724396,275.018585 305.246490,275.015137 
	C335.703308,274.985321 366.160217,275.020142 396.616821,274.931641 
	C398.099030,274.927338 400.225098,274.374634 400.906555,273.330322 
	C401.911255,271.790619 402.868958,268.707611 402.095093,267.834717 
	C400.483917,266.017273 397.745514,264.212860 395.432861,264.163635 
	C380.460846,263.844849 365.478790,263.999817 349.500000,263.999512 
M327.144714,242.999634 
	C328.442291,242.847092 330.039368,243.118469 330.976898,242.456223 
	C333.114258,240.946396 334.928345,238.978897 336.873779,237.197357 
	C334.899353,235.287109 333.010773,231.848648 330.935577,231.732071 
	C322.107971,231.236176 313.205078,231.444229 304.378418,232.076202 
	C302.487854,232.211548 299.116364,235.556290 299.384247,236.769684 
	C299.880341,239.016739 302.392029,240.985657 304.411499,242.648758 
	C305.238312,243.329681 306.966553,242.982498 308.285248,242.988297 
	C314.263214,243.014557 320.241333,242.999878 327.144714,242.999634 
M447.432800,263.999481 
	C441.300415,264.003143 435.163544,263.866455 429.037415,264.063965 
	C425.454559,264.179474 422.866150,266.465668 423.260437,269.952179 
	C423.466064,271.770386 426.075958,274.667206 427.716125,274.749084 
	C436.973999,275.211304 446.281891,275.238617 455.535889,274.736145 
	C457.394012,274.635254 460.332672,271.766144 460.576050,269.888611 
	C460.944336,267.047058 458.986542,264.265167 455.364349,264.051819 
	C453.051605,263.915588 450.725311,264.009003 447.432800,263.999481 
z"/>
<path fill="#1D5074" opacity="1.000000" stroke="none" 
	d="
M207.074371,248.746002 
	C166.178070,248.909027 125.691559,248.959061 85.205025,248.997650 
	C70.042747,249.012085 54.880432,249.007172 39.718143,248.996872 
	C31.297190,248.991150 27.016819,244.691681 27.009140,236.103760 
	C26.983213,207.112152 26.998051,178.120499 26.997887,149.128860 
	C26.997675,111.806290 27.038839,74.483643 26.973145,37.161186 
	C26.953568,26.038767 31.293589,21.809269 42.039352,21.867783 
	C95.189125,22.157206 148.341324,21.996775 201.492661,22.003263 
	C210.127136,22.004318 213.995422,25.837212 213.996185,34.397522 
	C214.002213,101.711449 213.970154,169.025406 214.054550,236.339218 
	C214.061417,241.812027 212.518021,246.049454 207.074371,248.746002 
M76.786736,175.041901 
	C94.482094,180.525574 112.938461,166.991409 112.995636,148.473465 
	C113.020821,140.317688 113.211105,132.153961 112.909294,124.009300 
	C112.765030,120.116203 112.115303,116.103180 110.884315,112.414894 
	C107.125076,101.151535 94.550644,93.891426 81.477524,95.025726 
	C70.953499,95.938843 59.304909,106.326088 58.117737,117.005310 
	C57.095833,126.197922 57.296604,135.528687 57.006649,144.799927 
	C56.559792,159.088150 62.686085,169.258530 76.786736,175.041901 
M178.906693,105.961937 
	C182.531906,105.536049 184.875717,103.127258 183.677017,99.963753 
	C182.864471,97.819359 179.598633,95.385559 177.294922,95.241531 
	C168.499069,94.691643 159.636856,94.730003 150.821167,95.086456 
	C138.952026,95.566391 128.988815,105.070206 128.263290,117.492188 
	C127.752029,126.245277 132.899185,136.736908 144.958038,139.907837 
	C149.969604,141.225647 155.464645,140.736160 160.743301,140.998932 
	C167.323761,141.326508 172.941269,146.782471 172.977310,152.962280 
	C173.019226,160.154465 168.207840,164.930649 160.725250,164.984253 
	C152.228653,165.045120 143.730713,165.068100 135.234604,164.982803 
	C131.077927,164.941086 128.665436,167.620422 128.494995,170.922806 
	C128.315231,174.405701 131.116669,176.145447 134.983475,176.057159 
	C143.476044,175.863235 151.976181,176.015182 160.473129,175.995590 
	C172.825256,175.967117 182.709122,167.120697 183.937851,154.819672 
	C184.953857,144.648285 176.543121,132.671356 165.579086,131.018387 
	C160.857727,130.306595 156.005676,130.496964 151.256363,129.920319 
	C148.902100,129.634476 146.267181,129.059128 144.419434,127.710350 
	C139.669037,124.242767 138.389435,119.137375 140.230621,113.671288 
	C141.686264,109.349838 146.330276,106.157974 152.017288,106.052216 
	C160.678024,105.891151 169.343735,105.995819 178.906693,105.961937 
z"/>
<path fill="#1D5074" opacity="1.000000" stroke="none" 
	d="
M295.000000,397.999542 
	C229.172699,397.999268 163.845413,398.008575 98.518120,397.991028 
	C84.500839,397.987274 73.120949,390.439819 69.740204,378.129578 
	C68.320801,372.961151 68.312737,367.355927 68.057167,361.930695 
	C67.790840,356.277161 68.240929,350.587494 67.919800,344.939667 
	C67.686836,340.842682 69.318489,339.925232 73.104507,339.935974 
	C111.767281,340.045685 150.430725,340.063141 189.093246,339.916168 
	C193.206680,339.900513 194.311371,341.364807 194.033371,345.126495 
	C193.390198,353.829529 194.575195,361.874237 201.644730,368.212402 
	C206.470352,372.538727 211.937653,374.931183 218.245636,374.947235 
	C257.075134,375.046021 295.905060,375.031433 334.734711,374.978455 
	C348.123657,374.960175 359.615387,364.651825 359.108398,350.532623 
	C358.687134,338.799042 357.667877,340.024078 369.306030,340.013214 
	C406.135925,339.978821 442.966553,340.109375 479.795013,339.877075 
	C484.964172,339.844452 486.386963,341.355713 486.103912,346.329681 
	C485.697418,353.472565 485.554291,360.689270 486.089233,367.815155 
	C487.380493,385.016083 473.386749,398.098663 455.984314,398.051727 
	C402.489899,397.907379 348.994812,397.999390 295.000000,397.999542 
z"/>
<path fill="#1D5074" opacity="1.000000" stroke="none" 
	d="
M236.009399,451.001221 
	C231.230759,451.001221 226.949814,451.001221 222.401443,451.001221 
	C222.401443,436.785492 222.401443,423.216400 222.401443,409.262238 
	C224.445633,409.166656 226.228912,409.011383 228.012253,409.010590 
	C260.335480,408.995972 292.659363,409.100128 324.981262,408.891418 
	C329.800415,408.860321 331.281677,410.156738 331.110779,415.010254 
	C330.747498,425.327576 330.838531,435.670288 331.079468,445.994781 
	C331.171661,449.946442 329.891815,451.093719 325.978821,451.075439 
	C296.155457,450.936218 266.331116,451.000366 236.009399,451.001221 
z"/>
<path fill="#1D5074" opacity="1.000000" stroke="none" 
	d="
M272.000000,462.000305 
	C301.975891,462.000427 331.451874,461.972992 360.927582,462.045776 
	C363.706055,462.052643 366.552979,462.412476 369.246033,463.092224 
	C374.951813,464.532410 379.008148,475.669464 375.516418,480.052063 
	C375.086700,480.591431 374.086548,480.825653 373.318115,480.912598 
	C372.001129,481.061584 370.658386,480.997070 369.326447,480.997131 
	C307.710175,480.999512 246.093872,480.999176 184.477585,480.999146 
	C182.657593,480.999146 180.837601,480.999115 179.123260,480.999115 
	C175.680176,469.352783 179.580048,461.920074 192.065079,461.969360 
	C218.543015,462.073883 245.021652,462.000671 272.000000,462.000305 
z"/>
<path fill="#1D5074" opacity="1.000000" stroke="none" 
	d="
M273.967743,142.211029 
	C271.383453,128.402832 265.308502,117.188431 253.836777,109.346642 
	C245.411728,103.587471 235.981888,100.949509 225.083252,100.747871 
	C225.083252,91.472847 224.992722,82.383209 225.241501,73.302856 
	C225.263290,72.508095 227.622559,70.985497 228.709641,71.137207 
	C237.332062,72.340454 246.465790,72.448227 254.397202,75.558235 
	C279.340729,85.338875 295.996674,103.227776 302.311523,129.757782 
	C303.640808,135.342346 304.229004,141.126953 304.748077,146.856598 
	C304.831360,147.776215 302.666046,149.851212 301.681458,149.765701 
	C293.636597,149.066986 285.643097,147.755127 277.595245,147.122391 
	C274.215942,146.856689 273.809296,145.243073 273.967743,142.211029 
z"/>
<path fill="#1D5074" opacity="1.000000" stroke="none" 
	d="
M248.922394,151.428009 
	C250.498505,137.845612 242.910843,127.197975 225.375000,125.430855 
	C225.375000,121.246765 225.375000,117.021088 225.375000,112.843918 
	C235.144073,109.983269 249.901016,117.278198 255.828796,125.625046 
	C265.241638,138.879242 265.889435,154.907364 256.798370,168.313522 
	C250.313263,177.876816 236.444351,185.342300 225.343170,182.243896 
	C225.343170,178.121124 225.343170,173.901779 225.343170,169.317215 
	C237.600327,169.230637 245.582962,163.596649 248.922394,151.428009 
z"/>
<path fill="#1D5074" opacity="1.000000" stroke="none" 
	d="
M266.201660,214.264618 
	C254.378738,220.700729 242.210815,224.411148 228.953140,224.167801 
	C226.646835,224.125473 225.012146,224.156525 225.019485,221.300797 
	C225.042068,212.507751 225.027710,203.714630 225.027710,195.194748 
	C231.527084,193.790894 237.575455,192.486404 243.622452,191.175522 
	C244.269882,191.035187 244.961075,190.963806 245.543625,190.679443 
	C248.483795,189.244217 252.025711,185.940125 254.171539,186.688660 
	C257.596069,187.883270 260.229889,191.624161 262.936340,194.531998 
	C266.957275,198.852142 270.749878,203.384811 275.034180,208.277573 
	C271.854889,210.412537 269.166870,212.217606 266.201660,214.264618 
z"/>
<path fill="#1D5074" opacity="1.000000" stroke="none" 
	d="
M270.756958,187.256989 
	C267.983276,184.186554 265.459503,181.367554 263.431305,179.102097 
	C266.623199,172.405502 269.268005,166.219086 272.564362,160.401886 
	C273.360779,158.996429 276.345276,158.102676 278.264893,158.194901 
	C284.678314,158.502991 291.069794,159.323059 297.460327,160.031357 
	C300.954376,160.418640 303.660126,160.715714 302.292236,166.023026 
	C298.908173,179.152985 292.916565,190.618561 282.970154,200.762558 
	C278.950043,196.308701 274.978455,191.908554 270.756958,187.256989 
z"/>
<path fill="#2A7ABD" opacity="1.000000" stroke="none" 
	d="
M296.999420,344.194244 
	C297.000000,350.942535 297.000000,357.211182 297.000000,363.734497 
	C283.269012,363.734497 270.038605,363.734497 256.403717,363.734497 
	C256.403717,356.090607 256.403717,348.393951 256.403717,339.999451 
	C262.732086,339.999451 269.144409,339.999115 275.556732,339.999573 
	C281.537628,340.000000 287.523651,340.147797 293.497314,339.940308 
	C296.476044,339.836823 297.362122,341.035187 296.999420,344.194244 
z"/>
<path fill="#1D5074" opacity="1.000000" stroke="none" 
	d="
M308.000183,350.038147 
	C308.002319,340.001465 308.002319,340.000702 317.405212,340.000946 
	C326.035858,340.001129 334.670990,340.166901 343.295044,339.928772 
	C347.064301,339.824677 348.412903,341.135254 348.036011,344.795868 
	C347.816162,346.930817 348.011963,349.107178 347.995422,351.264679 
	C347.938202,358.732941 343.245392,363.802216 335.885773,363.955292 
	C327.922516,364.120941 319.951385,363.896088 311.987274,364.040436 
	C308.954224,364.095398 307.805695,362.990662 307.970459,359.985321 
	C308.142822,356.841431 308.003357,353.680450 308.000183,350.038147 
z"/>
<path fill="#1D5074" opacity="1.000000" stroke="none" 
	d="
M233.968552,364.001648 
	C228.327682,363.997345 223.176163,364.147156 218.037643,363.953003 
	C210.125854,363.654083 205.117416,358.442505 205.001648,350.696136 
	C204.841843,340.000549 204.841812,340.000061 215.739731,340.000427 
	C223.873276,340.000702 232.010605,340.147675 240.138641,339.936493 
	C243.703629,339.843842 245.302917,340.758850 245.066284,344.633057 
	C244.773346,349.428833 244.752975,354.272461 245.072220,359.064941 
	C245.341721,363.110474 243.752609,364.450226 239.937744,364.033142 
	C238.133484,363.835876 236.289627,364.000824 233.968552,364.001648 
z"/>
<path fill="#1D5074" opacity="1.000000" stroke="none" 
	d="
M237.444305,143.979980 
	C238.751678,154.642914 234.581314,159.167023 225.325012,157.291046 
	C225.325012,150.817307 225.325012,144.276047 225.325012,137.785324 
	C231.373322,136.418060 234.487244,137.993225 237.444305,143.979980 
z"/>
<path fill="#000000" opacity="1.000000" stroke="none" 
	d="
M277.000000,307.999542 
	C269.839081,307.999268 263.177765,308.042938 256.517334,307.983765 
	C251.818054,307.942017 248.643295,305.508911 249.094482,301.968262 
	C249.608688,297.933105 252.514130,296.952850 256.299103,296.956329 
	C322.075775,297.016876 387.852600,297.035889 453.629120,296.912323 
	C457.678253,296.904694 460.629089,298.428741 460.629761,302.023346 
	C460.630402,305.445618 457.592987,307.681274 453.846954,307.975525 
	C452.522736,308.079559 451.183899,307.999268 449.851715,307.999268 
	C392.401154,307.999603 334.950562,307.999542 277.000000,307.999542 
z"/>
<path fill="#000000" opacity="1.000000" stroke="none" 
	d="
M400.000061,117.943253 
	C400.000122,105.144119 399.986420,92.836121 400.005646,80.528168 
	C400.016357,73.684120 401.682587,72.002754 408.362762,72.000755 
	C423.498260,71.996231 438.633759,71.987267 453.769226,72.006584 
	C458.798615,72.013000 460.945068,74.034508 460.970856,79.165550 
	C461.046875,94.300659 461.037262,109.436546 460.977478,124.571800 
	C460.956451,129.896530 458.806976,131.966446 453.377228,131.983246 
	C438.408234,132.029526 423.438934,132.012436 408.469818,131.993744 
	C401.888916,131.985535 400.034790,130.080597 400.001465,123.424088 
	C399.993134,121.760902 400.000092,120.097641 400.000061,117.943253 
M442.394958,120.999908 
	C450.791901,120.898834 449.942535,121.853661 449.986755,113.581932 
	C450.033081,104.920853 449.875732,96.256905 450.052734,87.599220 
	C450.121704,84.224411 449.154053,82.868233 445.570068,82.938179 
	C435.580048,83.133102 425.581848,83.113159 415.590851,82.944443 
	C412.208221,82.887321 410.865051,83.858673 410.938293,87.435005 
	C411.135986,97.091652 411.176849,106.759567 410.921875,116.413551 
	C410.817230,120.377052 412.444275,121.138664 415.939911,121.059761 
	C424.430328,120.868126 432.928040,120.999016 442.394958,120.999908 
z"/>
<path fill="#000000" opacity="1.000000" stroke="none" 
	d="
M458.613525,233.133896 
	C461.618500,237.912827 460.757324,240.529465 455.831116,242.125351 
	C454.149780,242.670074 452.309387,242.960968 450.540924,242.964172 
	C422.591248,243.014923 394.641418,242.999939 366.691650,242.999481 
	C365.859833,242.999466 365.011383,243.099670 364.199097,242.972107 
	C360.878876,242.450729 357.465576,241.833633 357.070099,237.598663 
	C356.674652,233.363846 359.539673,231.981293 363.077271,231.452637 
	C364.537750,231.234375 366.017731,231.020355 367.489044,231.018997 
	C395.106049,230.993439 422.723358,230.949005 450.339752,231.081894 
	C453.003021,231.094711 455.660736,232.249893 458.613525,233.133896 
z"/>
<path fill="#000000" opacity="1.000000" stroke="none" 
	d="
M350.000000,263.999512 
	C365.478790,263.999817 380.460846,263.844849 395.432861,264.163635 
	C397.745514,264.212860 400.483917,266.017273 402.095093,267.834717 
	C402.868958,268.707611 401.911255,271.790619 400.906555,273.330322 
	C400.225098,274.374634 398.099030,274.927338 396.616821,274.931641 
	C366.160217,275.020142 335.703308,274.985321 305.246490,275.015137 
	C301.724396,275.018585 299.287445,273.372833 299.142548,269.986816 
	C298.987854,266.371399 301.477722,264.269684 305.065643,264.054077 
	C308.548279,263.844788 312.053040,264.000366 315.548065,263.999969 
	C326.865387,263.998749 338.182678,263.999512 350.000000,263.999512 
z"/>
<path fill="#000000" opacity="1.000000" stroke="none" 
	d="
M326.682068,242.999786 
	C320.241333,242.999878 314.263214,243.014557 308.285248,242.988297 
	C306.966553,242.982498 305.238312,243.329681 304.411499,242.648758 
	C302.392029,240.985657 299.880341,239.016739 299.384247,236.769684 
	C299.116364,235.556290 302.487854,232.211548 304.378418,232.076202 
	C313.205078,231.444229 322.107971,231.236176 330.935577,231.732071 
	C333.010773,231.848648 334.899353,235.287109 336.873779,237.197357 
	C334.928345,238.978897 333.114258,240.946396 330.976898,242.456223 
	C330.039368,243.118469 328.442291,242.847092 326.682068,242.999786 
z"/>
<path fill="#000000" opacity="1.000000" stroke="none" 
	d="
M447.918945,263.999481 
	C450.725311,264.009003 453.051605,263.915588 455.364349,264.051819 
	C458.986542,264.265167 460.944336,267.047058 460.576050,269.888611 
	C460.332672,271.766144 457.394012,274.635254 455.535889,274.736145 
	C446.281891,275.238617 436.973999,275.211304 427.716125,274.749084 
	C426.075958,274.667206 423.466064,271.770386 423.260437,269.952179 
	C422.866150,266.465668 425.454559,264.179474 429.037415,264.063965 
	C435.163544,263.866455 441.300415,264.003143 447.918945,263.999481 
z"/>
<path fill="#000000" opacity="1.000000" stroke="none" 
	d="
M76.384644,174.968094 
	C62.686085,169.258530 56.559792,159.088150 57.006649,144.799927 
	C57.296604,135.528687 57.095833,126.197922 58.117737,117.005310 
	C59.304909,106.326088 70.953499,95.938843 81.477524,95.025726 
	C94.550644,93.891426 107.125076,101.151535 110.884315,112.414894 
	C112.115303,116.103180 112.765030,120.116203 112.909294,124.009300 
	C113.211105,132.153961 113.020821,140.317688 112.995636,148.473465 
	C112.938461,166.991409 94.482094,180.525574 76.384644,174.968094 
M67.999092,127.589828 
	C68.002151,134.587585 67.851173,141.589584 68.044365,148.582092 
	C68.333694,159.054031 75.448006,165.179886 86.786751,164.997314 
	C95.455292,164.857742 101.948822,157.676468 101.990631,148.101440 
	C102.028458,139.437714 102.082100,130.772614 101.971931,122.110100 
	C101.857201,113.088264 94.735168,106.100098 85.830002,105.997406 
	C75.227486,105.875153 67.030067,113.093834 67.999092,127.589828 
z"/>
<path fill="#000000" opacity="1.000000" stroke="none" 
	d="
M178.457001,105.974792 
	C169.343735,105.995819 160.678024,105.891151 152.017288,106.052216 
	C146.330276,106.157974 141.686264,109.349838 140.230621,113.671288 
	C138.389435,119.137375 139.669037,124.242767 144.419434,127.710350 
	C146.267181,129.059128 148.902100,129.634476 151.256363,129.920319 
	C156.005676,130.496964 160.857727,130.306595 165.579086,131.018387 
	C176.543121,132.671356 184.953857,144.648285 183.937851,154.819672 
	C182.709122,167.120697 172.825256,175.967117 160.473129,175.995590 
	C151.976181,176.015182 143.476044,175.863235 134.983475,176.057159 
	C131.116669,176.145447 128.315231,174.405701 128.494995,170.922806 
	C128.665436,167.620422 131.077927,164.941086 135.234604,164.982803 
	C143.730713,165.068100 152.228653,165.045120 160.725250,164.984253 
	C168.207840,164.930649 173.019226,160.154465 172.977310,152.962280 
	C172.941269,146.782471 167.323761,141.326508 160.743301,140.998932 
	C155.464645,140.736160 149.969604,141.225647 144.958038,139.907837 
	C132.899185,136.736908 127.752029,126.245277 128.263290,117.492188 
	C128.988815,105.070206 138.952026,95.566391 150.821167,95.086456 
	C159.636856,94.730003 168.499069,94.691643 177.294922,95.241531 
	C179.598633,95.385559 182.864471,97.819359 183.677017,99.963753 
	C184.875717,103.127258 182.531906,105.536049 178.457001,105.974792 
z"/>
<path fill="#1D5074" opacity="1.000000" stroke="none" 
	d="
M441.908875,120.999939 
	C432.928040,120.999016 424.430328,120.868126 415.939911,121.059761 
	C412.444275,121.138664 410.817230,120.377052 410.921875,116.413551 
	C411.176849,106.759567 411.135986,97.091652 410.938293,87.435005 
	C410.865051,83.858673 412.208221,82.887321 415.590851,82.944443 
	C425.581848,83.113159 435.580048,83.133102 445.570068,82.938179 
	C449.154053,82.868233 450.121704,84.224411 450.052734,87.599220 
	C449.875732,96.256905 450.033081,104.920853 449.986755,113.581932 
	C449.942535,121.853661 450.791901,120.898834 441.908875,120.999939 
z"/>
<path fill="#1D5074" opacity="1.000000" stroke="none" 
	d="
M67.999100,127.106750 
	C67.030067,113.093834 75.227486,105.875153 85.830002,105.997406 
	C94.735168,106.100098 101.857201,113.088264 101.971931,122.110100 
	C102.082100,130.772614 102.028458,139.437714 101.990631,148.101440 
	C101.948822,157.676468 95.455292,164.857742 86.786751,164.997314 
	C75.448006,165.179886 68.333694,159.054031 68.044365,148.582092 
	C67.851173,141.589584 68.002151,134.587585 67.999100,127.106750 
z"/>
</svg>